<?xml version="1.0" standalone="no"?>
<!DOCTYPE svg PUBLIC "-//W3C//DTD SVG 20010904//EN"
 "http://www.w3.org/TR/2001/REC-SVG-20010904/DTD/svg10.dtd">
<svg version="1.0" xmlns="http://www.w3.org/2000/svg"
 width="712.000000pt" height="712.000000pt" viewBox="0 0 712.000000 712.000000"
 preserveAspectRatio="xMidYMid meet">
<metadata>
Created by potrace 1.11, written by Peter Selinger 2001-2013
</metadata>
<g transform="translate(0.000000,712.000000) scale(0.100000,-0.100000)"
fill="#000000" stroke="none">
<path d="M3120 7113 c-8 -3 -33 -14 -55 -24 -23 -9 -53 -21 -68 -24 -15 -4
-27 -10 -27 -14 0 -4 -6 -8 -12 -8 -7 0 -29 -7 -48 -15 -65 -29 -177 -74 -192
-77 -4 -1 -34 -13 -65 -28 -72 -31 -105 -45 -118 -49 -5 -1 -88 -35 -184 -74
-134 -55 -180 -70 -200 -64 -14 4 -35 6 -46 5 -20 -2 -127 -44 -220 -86 -27
-13 -79 -35 -115 -50 -81 -33 -110 -46 -184 -80 -47 -21 -63 -25 -75 -16 -70
50 -157 21 -165 -55 -3 -30 -13 -37 -96 -73 -122 -52 -178 -80 -196 -99 -10
-11 -41 -29 -69 -40 -64 -25 -237 -97 -286 -119 -24 -10 -44 -28 -54 -49 -17
-35 -20 -85 -6 -99 5 -6 23 -48 40 -93 18 -46 36 -91 41 -100 5 -10 21 -48 36
-87 14 -38 32 -83 40 -100 22 -51 94 -227 119 -290 13 -33 30 -77 39 -97 9
-21 16 -40 16 -43 0 -3 11 -28 25 -55 14 -27 24 -51 23 -52 -1 -2 12 -37 30
-79 48 -116 55 -134 57 -139 1 -3 9 -22 18 -44 9 -21 17 -41 17 -43 0 -3 7
-21 16 -40 l17 -34 -52 -46 c-58 -51 -117 -125 -151 -193 -13 -25 -22 -46 -22
-47 1 -2 -6 -19 -14 -40 -39 -91 -40 -133 -37 -1348 1 -638 2 -1324 2 -1525 0
-201 0 -372 0 -380 0 -8 1 -125 2 -260 1 -158 6 -268 15 -310 15 -72 50 -166
71 -191 7 -9 10 -19 6 -22 -3 -4 -1 -7 5 -7 7 0 12 -4 12 -10 0 -16 81 -105
160 -174 25 -22 158 -87 207 -101 12 -3 32 -9 45 -13 28 -8 4382 -8 4483 1 39
3 97 14 130 25 73 24 155 63 155 74 0 4 7 8 15 8 23 0 170 150 196 201 50 95
76 167 88 244 9 61 11 547 7 2085 -3 1103 -8 2015 -11 2028 -3 12 -7 32 -10
45 -10 47 -70 152 -109 192 -81 83 -174 127 -295 140 -24 2 -45 6 -46 7 -2 2
1 28 6 58 5 30 12 75 15 100 3 25 8 54 10 65 3 11 7 36 9 55 2 19 7 50 10 68
3 17 7 47 10 65 2 17 7 48 10 67 3 19 8 49 10 65 2 17 6 41 9 55 2 14 7 47 11
73 4 27 8 58 10 69 3 11 7 39 9 62 3 22 8 52 10 66 4 22 13 82 21 145 2 11 6
36 10 55 3 19 8 51 10 70 3 19 7 46 9 59 3 13 8 49 12 80 3 31 6 58 7 61 1 13
-23 57 -39 71 -22 19 -43 26 -99 34 -22 3 -49 7 -60 9 -11 2 -40 6 -65 10 -25
4 -56 9 -70 11 -14 3 -45 7 -69 10 -23 3 -55 7 -70 9 -14 3 -44 7 -66 11 -23
3 -52 8 -65 11 -14 2 -41 7 -60 9 -37 4 -87 12 -130 20 -14 3 -42 7 -62 10
-21 2 -53 6 -70 9 -18 3 -49 8 -68 11 -19 2 -44 6 -55 9 -11 2 -47 7 -80 11
-32 3 -62 8 -65 10 -4 2 -29 6 -56 9 -27 3 -60 8 -74 10 -24 4 -124 19 -200
31 -19 2 -44 6 -55 9 -11 2 -45 7 -75 11 -30 5 -62 9 -70 11 -8 1 -35 5 -60 8
-25 4 -70 11 -100 16 -30 5 -75 12 -100 16 -25 3 -54 7 -65 9 -11 2 -83 12
-160 24 -77 11 -149 23 -160 25 -11 2 -42 7 -70 10 -27 4 -63 9 -80 12 -123
22 -198 26 -224 12 -38 -20 -61 -59 -67 -113 -4 -28 -7 -51 -9 -53 -2 -3 -12
21 -103 243 -40 96 -56 124 -82 143 -32 21 -68 27 -100 15z m-1647 -622 c5 0
5 -6 2 -11 -4 -6 -11 -8 -16 -5 -5 4 -9 3 -9 -2 0 -8 -47 -33 -62 -33 -14 0
-8 19 12 38 18 17 34 19 73 13z"/>
</g>
</svg>
